<svg width="36" height="36" viewBox="0 0 36 36" fill="none" xmlns="http://www.w3.org/2000/svg">
<path d="M0 8C0 3.58172 3.58172 0 8 0H28C32.4183 0 36 3.58172 36 8V28C36 32.4183 32.4183 36 28 36H8C3.58172 36 0 32.4183 0 28V8Z" fill="url(#paint0_linear_29_1168)"/>
<path fill-rule="evenodd" clip-rule="evenodd" d="M21.8854 24.885C20.623 25.6063 19.3185 25.9779 17.9718 25.9999C16.6158 26.0059 15.3474 25.6628 14.1668 24.9706C12.9767 24.2624 11.9846 23.2275 11.1903 21.866C10.4054 20.5206 10.0087 19.1562 10.0002 17.7729C9.99161 16.3896 10.3417 15.1217 11.0505 13.9693C11.7593 12.8168 12.7529 11.8753 14.0315 11.1447C15.3101 10.4142 16.6308 10.0332 17.9937 10.002C19.3566 9.97076 20.6411 10.3046 21.8473 11.0036C23.0535 11.7026 24.0491 12.7248 24.834 14.0702C25.0394 14.4224 25.2177 14.7761 25.3688 15.1315L14.6751 21.2417C15.3625 22.1045 16.1486 22.6734 17.0332 22.9483C18.2262 23.2918 19.3811 23.1445 20.4978 22.5064C21.2099 22.0995 21.7754 21.5521 22.1942 20.8644C22.5903 20.2296 22.8044 19.5128 22.8364 18.7141L25.9048 16.9609C25.9704 17.3643 26.0021 17.7698 25.9999 18.1773C25.9922 19.5698 25.6225 20.8596 24.8907 22.0465C24.1658 23.2083 23.164 24.1544 21.8854 24.885ZM13.5054 19.2405L21.3515 14.7574C20.9475 14.2607 20.5035 13.8701 20.0196 13.5856C19.2549 13.1256 18.4669 12.9031 17.6556 12.9181C16.8444 12.9332 16.0827 13.1441 15.3706 13.551C14.6585 13.9579 14.093 14.5053 13.6742 15.1931C13.2716 15.8716 13.0885 16.6489 13.1249 17.5251C13.1422 18.0762 13.2691 18.648 13.5054 19.2405Z" fill="white"/>
<defs>
<linearGradient id="paint0_linear_29_1168" x1="18" y1="0" x2="18" y2="36" gradientUnits="userSpaceOnUse">
<stop stop-color="#4C6CDE"/>
<stop offset="1" stop-color="#00D2F4"/>
</linearGradient>
</defs>
</svg>
