<svg width="106" height="65" viewBox="0 0 106 65" fill="none" xmlns="http://www.w3.org/2000/svg">
<path d="M100 5H26C22.6863 5 20 7.68629 20 11V59C20 62.3137 22.6863 65 26 65H100C103.314 65 106 62.3137 106 59V11C106 7.68629 103.314 5 100 5Z" fill="#EBEDF1" fill-opacity="0.5"/>
<path d="M100 5.5H26C22.9624 5.5 20.5 7.96243 20.5 11V59C20.5 62.0376 22.9624 64.5 26 64.5H100C103.038 64.5 105.5 62.0376 105.5 59V11C105.5 7.96243 103.038 5.5 100 5.5Z" stroke="#898C91" stroke-opacity="0.5" stroke-dasharray="2 2"/>
<path d="M91 15H35C32.7909 15 31 16.7909 31 19V27C31 29.2091 32.7909 31 35 31H91C93.2091 31 95 29.2091 95 27V19C95 16.7909 93.2091 15 91 15Z" fill="#898C91" fill-opacity="0.15"/>
<path d="M93.5 42H54.5C53.6716 42 53 42.6716 53 43.5C53 44.3284 53.6716 45 54.5 45H93.5C94.3284 45 95 44.3284 95 43.5C95 42.6716 94.3284 42 93.5 42Z" fill="#898C91"/>
<path d="M81.5 49H54.5C53.6716 49 53 49.6716 53 50.5C53 51.3284 53.6716 52 54.5 52H81.5C82.3284 52 83 51.3284 83 50.5C83 49.6716 82.3284 49 81.5 49Z" fill="#898C91" fill-opacity="0.75"/>
<path d="M43 39H35C32.7909 39 31 40.7909 31 43V51C31 53.2091 32.7909 55 35 55H43C45.2091 55 47 53.2091 47 51V43C47 40.7909 45.2091 39 43 39Z" fill="#898C91" fill-opacity="0.3"/>
<path d="M34.109 0H12.6692C10.5163 0 8.771 1.74527 8.771 3.89816V25.338C8.771 27.4909 10.5163 29.2362 12.6692 29.2362H34.109C36.2619 29.2362 38.0072 27.4909 38.0072 25.338V3.89816C38.0072 1.74527 36.2619 0 34.109 0Z" fill="#EBEDF1"/>
<mask id="mask0_8_2" style="mask-type:luminance" maskUnits="userSpaceOnUse" x="13" y="4" width="21" height="21">
<path d="M33.1344 4.87268H13.6436V24.3635H33.1344V4.87268Z" fill="white"/>
</mask>
<g mask="url(#mask0_8_2)">
<path d="M21.9272 21.927C21.3889 21.927 20.9526 21.4907 20.9526 20.9525V16.9708C20.9526 16.7654 21.0175 16.5653 21.138 16.3989L25.4305 10.4753C25.8449 9.90347 26.7109 9.94845 27.0638 10.5601L32.7784 20.4655C33.1533 21.1152 32.6844 21.927 31.9343 21.927H21.9272ZM18.6317 14.1188C19.0462 13.576 19.876 13.6169 20.2352 14.1978L24.094 20.4401C24.4954 21.0893 24.0284 21.927 23.2651 21.927H14.6394C13.8325 21.927 13.3751 21.0024 13.8649 20.361L18.6317 14.1188ZM18.1102 11.3695C17.5718 11.3695 17.0554 11.1556 16.6746 10.7749C16.2939 10.3941 16.08 9.87772 16.08 9.33925C16.08 8.80079 16.2939 8.28437 16.6746 7.90362C17.0554 7.52287 17.5718 7.30896 18.1102 7.30896C18.6487 7.30896 19.1651 7.52287 19.5459 7.90362C19.9266 8.28437 20.1405 8.80079 20.1405 9.33925C20.1405 9.87772 19.9266 10.3941 19.5459 10.7749C19.1651 11.1556 18.6487 11.3695 18.1102 11.3695Z" fill="#898C91"/>
</g>
<path d="M3.55195 37.5102L2.34218 36.5278C2.12443 36.3465 2.08139 36.0102 2.2625 35.7691L4.8677 32.2892L1.90159 31.4944C1.69971 31.4403 1.55623 31.2615 1.53125 31.0441C1.50407 30.8349 1.60434 30.616 1.79136 30.5082L11.9894 24.2528C12.1111 24.1713 12.2485 24.1555 12.3805 24.1908C12.4426 24.2075 12.5081 24.2426 12.5559 24.2817C12.7203 24.4135 12.7941 24.6352 12.737 24.8481L9.43672 37.1648C9.37967 37.3777 9.20497 37.5328 8.99667 37.5648C8.93573 37.5748 8.86146 37.5724 8.79935 37.5558C8.66735 37.5204 8.55847 37.4298 8.49163 37.3065L6.75368 34.1024L4.27879 37.4065C4.09987 37.6395 3.77747 37.6935 3.55195 37.5102Z" fill="#898C91"/>
</svg>
